<svg width="30" height="31" viewBox="0 0 30 31" fill="none" xmlns="http://www.w3.org/2000/svg">
<g clip-path="url(#clip0_809_13398)">
<path d="M29.5479 19.0405C27.5445 27.0763 19.4055 31.9667 11.3688 29.9628C3.33542 27.9595 -1.55501 19.82 0.449228 11.7849C2.45171 3.74821 10.5907 -1.14258 18.6249 0.860778C26.6611 2.86414 31.5512 11.0045 29.5476 19.0406L29.5478 19.0405H29.5479Z" fill="#F3BA2F"/>
<path fill-rule="evenodd" clip-rule="evenodd" d="M15.0002 9.93193L11.116 13.8161L11.1161 13.8159L8.8562 11.5559L15.0002 5.41193L21.1462 11.5578L18.8862 13.8178L15.0002 9.93193ZM7.26008 13.1515L5 15.4119L7.25992 17.6715L9.52 15.4114L7.26008 13.1515ZM11.1156 17.008L14.9997 20.8919L18.8857 17.0062L21.1469 19.265L21.1457 19.2662L14.9997 25.4119L8.85574 19.2679L8.85254 19.2647L11.1156 17.008ZM22.7398 13.1528L20.4797 15.4129L22.7397 17.6728L24.9997 15.4127L22.7398 13.1528Z" fill="white"/>
<path d="M17.2917 15.4107H17.2927L14.9996 13.1174L13.3046 14.8119L13.1099 15.0067L12.7083 15.4084L12.7051 15.4115L12.7083 15.4148L14.9996 17.7064L17.2928 15.4131L17.294 15.4118L17.2919 15.4107" fill="white"/>
</g>
<defs>
<clipPath id="clip0_809_13398">
<rect y="0.411926" width="30" height="30" rx="15" fill="white"/>
</clipPath>
</defs>
</svg>
