<svg width="30" height="31" viewBox="0 0 30 31" fill="none" xmlns="http://www.w3.org/2000/svg">
<g clip-path="url(#clip0_809_13399)">
<circle cx="15" cy="15.4119" r="15" fill="white"/>
<path d="M19.6035 17.2781V11.6522H20.7344V17.2781H19.6035Z" fill="#F7A600"/>
<path d="M6.42818 18.9491H4.00391V13.3233H6.33079C7.46165 13.3233 8.12043 13.9398 8.12043 14.9036C8.12043 15.5276 7.69718 15.931 7.40428 16.0654C7.75405 16.2232 8.20146 16.5787 8.20146 17.3296C8.20146 18.3802 7.46165 18.9491 6.42818 18.9491ZM6.24121 14.3032H5.13476V15.5991H6.24096C6.72083 15.5991 6.98933 15.3384 6.98933 14.9509C6.98933 14.5641 6.72108 14.3032 6.24121 14.3032ZM6.31419 16.5868H5.13501V17.9698H6.31469C6.82727 17.9698 7.07086 17.6537 7.07086 17.2743C7.07086 16.895 6.82677 16.5868 6.31469 16.5868H6.31419ZM11.6507 16.6421V18.9491H10.5278V16.6421L8.78677 13.3233H10.0153L11.0973 15.5911L12.163 13.3233H13.3912L11.6507 16.6421ZM16.5973 18.9491H14.1731V13.3233H16.4997C17.6306 13.3233 18.2896 13.9398 18.2896 14.9036C18.2896 15.5276 17.8663 15.931 17.5734 16.0654C17.9232 16.2232 18.3706 16.5787 18.3706 17.3296C18.3706 18.3802 17.6308 18.9491 16.5973 18.9491ZM16.4104 14.3032H15.3039V15.5991H16.4104C16.8902 15.5991 17.1587 15.3384 17.1587 14.9509C17.1587 14.5641 16.8902 14.3032 16.4104 14.3032ZM16.4833 16.5868H15.3037V17.9698H16.4833C16.9962 17.9698 17.2398 17.6537 17.2398 17.2743C17.2398 16.895 16.9962 16.5868 16.4833 16.5868ZM24.383 14.3034V18.9497H23.2521V14.3032H21.7393V13.3233H25.8963V14.3032L24.383 14.3034Z" fill="#15192A"/>
</g>
<defs>
<clipPath id="clip0_809_13399">
<rect width="30" height="30" fill="white" transform="translate(0 0.411926)"/>
</clipPath>
</defs>
</svg>
