<svg width="24" height="24" viewBox="0 0 24 24" fill="none" xmlns="http://www.w3.org/2000/svg">
<path fill-rule="evenodd" clip-rule="evenodd" d="M9.70365 3.17898C10.9025 1.75223 13.0984 1.75223 14.2973 3.17898L14.8719 3.8628C15.0814 4.11222 15.3994 4.24392 15.7239 4.21574L16.6138 4.13851C18.4704 3.97736 20.0231 5.53011 19.862 7.38669L19.7847 8.27652C19.7566 8.60108 19.8882 8.91902 20.1377 9.1286L20.8215 9.70319C22.2482 10.902 22.2482 13.098 20.8215 14.2968L20.1377 14.8714C19.8882 15.081 19.7566 15.3989 19.7847 15.7235L19.862 16.6133C20.0231 18.4699 18.4704 20.0227 16.6138 19.8615L15.7239 19.7843C15.3994 19.7561 15.0814 19.8878 14.8719 20.1372L14.2973 20.821C13.0984 22.2478 10.9025 22.2478 9.70365 20.821L9.12906 20.1372C8.91948 19.8878 8.60154 19.7561 8.27698 19.7843L7.38715 19.8615C5.53056 20.0227 3.97782 18.4699 4.13897 16.6133L4.2162 15.7235C4.24437 15.3989 4.11268 15.081 3.86326 14.8714L3.17944 14.2968C1.75269 13.098 1.75269 10.902 3.17944 9.70319L3.86326 9.1286C4.11268 8.91902 4.24437 8.60108 4.2162 8.27652L4.13897 7.38669C3.97782 5.53011 5.53057 3.97736 7.38715 4.13851L8.27698 4.21574C8.60154 4.24392 8.91948 4.11222 9.12906 3.8628L9.70365 3.17898ZM12.7661 4.46561C12.3665 3.99002 11.6345 3.99002 11.2349 4.46561L10.6603 5.14943C10.0315 5.89768 9.07772 6.29277 8.10403 6.20825L7.2142 6.13102C6.59534 6.0773 6.07776 6.59488 6.13147 7.21374L6.20871 8.10358C6.29322 9.07726 5.89814 10.0311 5.14988 10.6598L4.46606 11.2344C3.99048 11.634 3.99048 12.366 4.46606 12.7656L5.14988 13.3402C5.89814 13.9689 6.29322 14.9228 6.20871 15.8964L6.13147 16.7863C6.07776 17.4051 6.59534 17.9227 7.2142 17.869L8.10403 17.7918C9.07771 17.7072 10.0315 18.1023 10.6603 18.8506L11.2349 19.5344C11.6345 20.01 12.3665 20.01 12.7661 19.5344L13.3407 18.8506C13.9694 18.1023 14.9232 17.7072 15.8969 17.7918L16.7867 17.869C17.4056 17.9227 17.9232 17.4051 17.8695 16.7863L17.7922 15.8964C17.7077 14.9228 18.1028 13.9689 18.851 13.3402L19.5349 12.7656C20.0104 12.366 20.0104 11.634 19.5349 11.2344L18.851 10.6598C18.1028 10.0311 17.7077 9.07726 17.7922 8.10358L17.8695 7.21374C17.9232 6.59488 17.4056 6.0773 16.7867 6.13102L15.8969 6.20825C14.9232 6.29277 13.9694 5.89768 13.3407 5.14943L12.7661 4.46561ZM16.0005 10.5C16.0005 11.8807 14.8812 13 13.5005 13C12.1198 13 11.0005 11.8807 11.0005 10.5C11.0005 9.11929 12.1198 8.00001 13.5005 8.00001C14.8812 8.00001 16.0005 9.11929 16.0005 10.5ZM9.50046 16C10.3289 16 11.0005 15.3284 11.0005 14.5C11.0005 13.6716 10.3289 13 9.50046 13C8.67204 13 8.00046 13.6716 8.00046 14.5C8.00046 15.3284 8.67204 16 9.50046 16Z" fill="white"/>
</svg>
