<svg width="18" height="18" viewBox="0 0 18 18" fill="none" xmlns="http://www.w3.org/2000/svg">
<path opacity="0.5" fill-rule="evenodd" clip-rule="evenodd" d="M9 18C13.9706 18 18 13.9706 18 9C18 4.02944 13.9706 0 9 0C4.02944 0 0 4.02944 0 9C0 13.9706 4.02944 18 9 18ZM6 4.53571V6.35714L6.07653 6.37245C6.72959 6.08674 7.42347 5.94388 8.15816 5.94388C8.7602 5.94388 9.18367 6.0051 9.42857 6.12755C9.68367 6.2398 9.81122 6.47449 9.81122 6.83163C9.81122 7.04592 9.78571 7.22449 9.73469 7.36735C9.69388 7.5102 9.60714 7.65816 9.47449 7.81122C9.34184 7.95408 9.13776 8.15306 8.86225 8.40816L8.46429 8.77551C8.18878 9.01021 7.9898 9.21939 7.86735 9.40306C7.7551 9.57653 7.68367 9.76531 7.65306 9.96939C7.63265 10.1735 7.62245 10.4439 7.62245 10.7806V11.2092H9.93367V10.6276C9.93367 10.4133 9.94388 10.2551 9.96429 10.1531C9.9949 10.0408 10.0663 9.92857 10.1786 9.81633C10.301 9.69388 10.4898 9.51531 10.7449 9.28061L11.2194 8.85204C11.5663 8.51531 11.7806 8.18878 11.8622 7.87245C11.9541 7.55612 12 7.16837 12 6.70918C12 6.05612 11.8878 5.53061 11.6633 5.13265C11.449 4.73469 11.0918 4.44898 10.5918 4.27551C10.102 4.09184 9.43878 4 8.60204 4C8.19388 4 7.7551 4.04592 7.28571 4.13775C6.81633 4.21939 6.38776 4.35204 6 4.53571ZM10.0561 12.9082C10.0561 12.6735 10.0408 12.3827 10.0102 12.0357C9.80612 11.9949 9.60204 11.9694 9.39796 11.9592C9.20408 11.9388 9.0051 11.9286 8.80102 11.9286C8.59694 11.9286 8.39286 11.9388 8.18878 11.9592C7.98469 11.9694 7.78571 11.9949 7.59184 12.0357C7.56122 12.2092 7.54082 12.3724 7.53061 12.5255C7.52041 12.6684 7.51531 12.7959 7.51531 12.9082C7.51531 13.0408 7.52041 13.1786 7.53061 13.3214C7.54082 13.4643 7.56122 13.6173 7.59184 13.7806C7.78571 13.8214 7.97959 13.852 8.17347 13.8724C8.37755 13.8929 8.57653 13.9031 8.77041 13.9031C8.97449 13.9031 9.17857 13.8929 9.38265 13.8724C9.58673 13.852 9.79592 13.8214 10.0102 13.7806C10.0408 13.4439 10.0561 13.1531 10.0561 12.9082Z" fill="white"/>
</svg>
