<svg width="24" height="24" viewBox="0 0 24 24" fill="none" xmlns="http://www.w3.org/2000/svg">
<path fill-rule="evenodd" clip-rule="evenodd" d="M5.29209 6.58052C5.01022 6.83042 5 6.97447 5 7V7.00005C5.00001 7.0257 5.01039 7.16972 5.29209 7.41948C5.57279 7.66834 6.03602 7.93815 6.69427 8.18499C8.0034 8.67591 9.87903 9 12 9C14.121 9 15.9966 8.67591 17.3057 8.18499C17.964 7.93815 18.4272 7.66834 18.7079 7.41948C18.9896 7.1697 19 7.02568 19 7.00004V7C19 6.97447 18.9898 6.83042 18.7079 6.58052C18.4272 6.33166 17.964 6.06185 17.3057 5.81501C15.9966 5.32409 14.121 5 12 5C9.87903 5 8.0034 5.32409 6.69427 5.81501C6.03602 6.06185 5.57279 6.33166 5.29209 6.58052ZM3 7V7.00005V7.00018V7.00041V7.00072V7.00113V7.00162V7.0022V7.00287V7.00363V7.00448V7.00541V7.00643V7.00754V7.00873V7.01002V7.01138V7.01283V7.01437V7.01599V7.0177V7.01949V7.02137V7.02333V7.02537V7.0275V7.02971V7.032V7.03438V7.03683V7.03937V7.04199V7.04469V7.04747V7.05033V7.05327V7.05629V7.05939V7.06257V7.06583V7.06917V7.07259V7.07608V7.07965V7.0833V7.08703V7.09083V7.09471V7.09866V7.10269V7.1068V7.11098V7.11524V7.11957V7.12397V7.12845V7.13301V7.13763V7.14233V7.1471V7.15195V7.15686V7.16185V7.16691V7.17204V7.17725V7.18252V7.18786V7.19328V7.19876V7.20431V7.20993V7.21562V7.22138V7.22721V7.2331V7.23906V7.24509V7.25119V7.25735V7.26358V7.26987V7.27623V7.28266V7.28915V7.29571V7.30233V7.30901V7.31576V7.32257V7.32945V7.33638V7.34338V7.35045V7.35757V7.36476V7.37201V7.37931V7.38668V7.39411V7.40161V7.40916V7.41676V7.42443V7.43216V7.43995V7.44779V7.4557V7.46366V7.47167V7.47975V7.48788V7.49607V7.50431V7.51261V7.52097V7.52938V7.53785V7.54637V7.55494V7.56357V7.57225V7.58099V7.58978V7.59862V7.60751V7.61646V7.62546V7.63451V7.64361V7.65276V7.66197V7.67122V7.68052V7.68988V7.69928V7.70873V7.71823V7.72778V7.73737V7.74702V7.75671V7.76645V7.77624V7.78607V7.79595V7.80588V7.81585V7.82586V7.83593V7.84603V7.85618V7.86638V7.87662V7.8869V7.89723V7.90759V7.91801V7.92846V7.93896V7.94949V7.96007V7.97069V7.98135V7.99205V8.0028V8.01358V8.0244V8.03526V8.04616V8.0571V8.06807V8.07909V8.09014V8.10123V8.11236V8.12352V8.13472V8.14596V8.15723V8.16854V8.17988V8.19126V8.20267V8.21412V8.2256V8.23711V8.24866V8.26024V8.27186V8.2835V8.29518V8.30689V8.31864V8.33041V8.34221V8.35405V8.36592V8.37781V8.38974V8.40169V8.41368V8.42569V8.43773V8.4498V8.4619V8.47402V8.48618V8.49836V8.51056V8.52279V8.53505V8.54734V8.55965V8.57198V8.58434V8.59673V8.60913V8.62157V8.63402V8.6465V8.65901V8.67153V8.68408V8.69665V8.70924V8.72185V8.73449V8.74714V8.75982V8.77251V8.78523V8.79796V8.81072V8.82349V8.83628V8.84909V8.86192V8.87477V8.88763V8.90051V8.91341V8.92633V8.93926V8.9522V8.96516V8.97814V8.99113V9.00414V9.01716V9.0302V9.04325V9.05631V9.06939V9.08248V9.09558V9.10869V9.12182V9.13496V9.1481V9.16126V9.17444V9.18762V9.20081V9.21401V9.22722V9.24044V9.25367V9.2669V9.28015V9.2934V9.30666V9.31993V9.33321V9.34649V9.35978V9.37307V9.38637V9.39968V9.41299V9.4263V9.43962V9.45295V9.46628V9.47961V9.49294V9.50628V9.51962V9.53297V9.54631V9.55966V9.57301V9.58636V9.59971V9.61306V9.62641V9.63977V9.65312V9.66647V9.67982V9.69317V9.70652V9.71986V9.7332V9.74654V9.75988V9.77322V9.78655V9.79988V9.8132V9.82652V9.83983V9.85314V9.86645V9.87975V9.89304V9.90633V9.91961V9.93288V9.94615V9.95941V9.97266V9.9859V9.99914V10.0124V10.0256V10.0388V10.052V10.0652V10.0784V10.0915V10.1047V10.1178V10.131V10.1441V10.1572V10.1703V10.1834V10.1965V10.2095V10.2226V10.2356V10.2486V10.2616V10.2746V10.2876V10.3005V10.3135V10.3264V10.3393V10.3522V10.3651V10.3779V10.3908V10.4036V10.4164V10.4292V10.442V10.4547V10.4675V10.4802V10.4929V10.5055V10.5182V10.5308V10.5434V10.556V10.5686V10.5811V10.5936V10.6061V10.6186V10.6311V10.6435V10.6559V10.6683V10.6806V10.6929V10.7053V10.7175V10.7298V10.742V10.7542V10.7664V10.7785V10.7906V10.8027V10.8148V10.8268V10.8388V10.8508V10.8628V10.8747V10.8866V10.8984V10.9103V10.9221V10.9338V10.9456V10.9573V10.9689V10.9806V10.9922V11.0038V11.0153V11.0268V11.0383V11.0497V11.0611V11.0725V11.0838V11.0951V11.1064V11.1176V11.1288V11.14V11.1511V11.1622V11.1732V11.1842V11.1952V11.2061V11.217V11.2279V11.2387V11.2494V11.2602V11.2709V11.2815V11.2921V11.3027V11.3132V11.3237V11.3342V11.3446V11.3549V11.3652V11.3755V11.3857V11.3959V11.4061V11.4162V11.4262V11.4362V11.4462V11.4561V11.466V11.4758V11.4856V11.4953V11.505V11.5146V11.5242V11.5337V11.5432V11.5527V11.562V11.5714V11.5807V11.5899V11.5991V11.6083V11.6173V11.6264V11.6354V11.6443V11.6532V11.662V11.6708V11.6795V11.6882V11.6968V11.7054V11.7139V11.7223V11.7307V11.7391V11.7474V11.7556V11.7638V11.7719V11.7799V11.788V11.7959V11.8038V11.8116V11.8194V11.8271V11.8348V11.8424V11.8499V11.8574V11.8648V11.8721V11.8794V11.8867V11.8938V11.901V11.908V11.915V11.9219V11.9288V11.9356V11.9423V11.949V11.9556V11.9621V11.9686V11.975V11.9814V11.9876V11.9939V12C3 12 3 12 3 12V12.0002V12.0004V12.0007V12.0011V12.0016V12.0022V12.0029V12.0036V12.0045V12.0054V12.0064V12.0075V12.0087V12.01V12.0114V12.0128V12.0144V12.016V12.0177V12.0195V12.0214V12.0233V12.0254V12.0275V12.0297V12.032V12.0344V12.0368V12.0394V12.042V12.0447V12.0475V12.0503V12.0533V12.0563V12.0594V12.0626V12.0658V12.0692V12.0726V12.0761V12.0797V12.0833V12.087V12.0908V12.0947V12.0987V12.1027V12.1068V12.111V12.1152V12.1196V12.124V12.1285V12.133V12.1376V12.1423V12.1471V12.1519V12.1569V12.1619V12.1669V12.172V12.1772V12.1825V12.1879V12.1933V12.1988V12.2043V12.2099V12.2156V12.2214V12.2272V12.2331V12.2391V12.2451V12.2512V12.2573V12.2636V12.2699V12.2762V12.2827V12.2892V12.2957V12.3023V12.309V12.3158V12.3226V12.3294V12.3364V12.3434V12.3504V12.3576V12.3648V12.372V12.3793V12.3867V12.3941V12.4016V12.4092V12.4168V12.4244V12.4322V12.4399V12.4478V12.4557V12.4637V12.4717V12.4797V12.4879V12.4961V12.5043V12.5126V12.521V12.5294V12.5378V12.5464V12.5549V12.5636V12.5723V12.581V12.5898V12.5986V12.6075V12.6165V12.6255V12.6345V12.6436V12.6528V12.662V12.6712V12.6805V12.6899V12.6993V12.7087V12.7182V12.7278V12.7374V12.747V12.7567V12.7665V12.7762V12.7861V12.7959V12.8059V12.8158V12.8259V12.8359V12.846V12.8562V12.8664V12.8766V12.8869V12.8972V12.9076V12.918V12.9285V12.939V12.9495V12.9601V12.9707V12.9814V12.9921V13.0028V13.0136V13.0244V13.0353V13.0462V13.0571V13.0681V13.0791V13.0901V13.1012V13.1124V13.1235V13.1347V13.146V13.1572V13.1685V13.1799V13.1913V13.2027V13.2141V13.2256V13.2371V13.2487V13.2602V13.2719V13.2835V13.2952V13.3069V13.3186V13.3304V13.3422V13.354V13.3659V13.3778V13.3897V13.4017V13.4137V13.4257V13.4377V13.4498V13.4619V13.474V13.4862V13.4984V13.5106V13.5228V13.5351V13.5473V13.5596V13.572V13.5843V13.5967V13.6091V13.6216V13.634V13.6465V13.659V13.6715V13.6841V13.6966V13.7092V13.7219V13.7345V13.7471V13.7598V13.7725V13.7852V13.798V13.8107V13.8235V13.8363V13.8491V13.8619V13.8748V13.8876V13.9005V13.9134V13.9263V13.9393V13.9522V13.9652V13.9781V13.9911V14.0041V14.0172V14.0302V14.0432V14.0563V14.0694V14.0825V14.0956V14.1087V14.1218V14.135V14.1481V14.1613V14.1744V14.1876V14.2008V14.214V14.2272V14.2404V14.2537V14.2669V14.2801V14.2934V14.3067V14.3199V14.3332V14.3465V14.3598V14.3731V14.3864V14.3997V14.413V14.4263V14.4396V14.4529V14.4663V14.4796V14.4929V14.5063V14.5196V14.533V14.5463V14.5597V14.573V14.5864V14.5997V14.6131V14.6264V14.6398V14.6531V14.6665V14.6798V14.6932V14.7065V14.7199V14.7332V14.7465V14.7599V14.7732V14.7865V14.7999V14.8132V14.8265V14.8398V14.8531V14.8664V14.8797V14.893V14.9063V14.9196V14.9329V14.9461V14.9594V14.9727V14.9859V14.9991V15.0124V15.0256V15.0388V15.052V15.0652V15.0784V15.0915V15.1047V15.1178V15.131V15.1441V15.1572V15.1703V15.1834V15.1965V15.2095V15.2226V15.2356V15.2486V15.2616V15.2746V15.2876V15.3005V15.3135V15.3264V15.3393V15.3522V15.3651V15.3779V15.3908V15.4036V15.4164V15.4292V15.442V15.4547V15.4675V15.4802V15.4929V15.5055V15.5182V15.5308V15.5434V15.556V15.5686V15.5811V15.5936V15.6061V15.6186V15.6311V15.6435V15.6559V15.6683V15.6806V15.6929V15.7053V15.7175V15.7298V15.742V15.7542V15.7664V15.7785V15.7906V15.8027V15.8148V15.8268V15.8388V15.8508V15.8628V15.8747V15.8866V15.8984V15.9103V15.9221V15.9338V15.9456V15.9573V15.9689V15.9806V15.9922V16.0038V16.0153V16.0268V16.0383V16.0497V16.0611V16.0725V16.0838V16.0951V16.1064V16.1176V16.1288V16.14V16.1511V16.1622V16.1732V16.1842V16.1952V16.2061V16.217V16.2279V16.2387V16.2494V16.2602V16.2709V16.2815V16.2921V16.3027V16.3132V16.3237V16.3342V16.3446V16.3549V16.3652V16.3755V16.3857V16.3959V16.4061V16.4162V16.4262V16.4362V16.4462V16.4561V16.466V16.4758V16.4856V16.4953V16.505V16.5146V16.5242V16.5337V16.5432V16.5527V16.562V16.5714V16.5807V16.5899V16.5991V16.6083V16.6173V16.6264V16.6354V16.6443V16.6532V16.662V16.6708V16.6795V16.6882V16.6968V16.7054V16.7139V16.7223V16.7307V16.7391V16.7474V16.7556V16.7638V16.7719V16.7799V16.788V16.7959V16.8038V16.8116V16.8194V16.8271V16.8348V16.8424V16.8499V16.8574V16.8648V16.8721V16.8794V16.8867V16.8938V16.901V16.908V16.915V16.9219V16.9288V16.9356V16.9423V16.949V16.9556V16.9621V16.9686V16.975V16.9814V16.9876V16.9939V17C3 17.8029 3.43749 18.4481 3.96527 18.916C4.49422 19.385 5.20256 19.7616 5.99202 20.0576C7.57833 20.6525 9.70269 21 12 21C14.2973 21 16.4217 20.6525 18.008 20.0576C18.7974 19.7616 19.5058 19.385 20.0347 18.916C20.5625 18.4481 21 17.8029 21 17V16.9903V16.9805V16.9707V16.9609V16.951V16.9411V16.9311V16.9211V16.9111V16.901V16.8909V16.8808V16.8706V16.8604V16.8502V16.8399V16.8296V16.8192V16.8088V16.7984V16.788V16.7775V16.767V16.7564V16.7458V16.7352V16.7246V16.7139V16.7031V16.6924V16.6816V16.6708V16.66V16.6491V16.6382V16.6272V16.6163V16.6053V16.5943V16.5832V16.5721V16.561V16.5498V16.5387V16.5275V16.5162V16.505V16.4937V16.4824V16.471V16.4597V16.4483V16.4368V16.4254V16.4139V16.4024V16.3909V16.3793V16.3677V16.3561V16.3445V16.3328V16.3212V16.3095V16.2977V16.286V16.2742V16.2624V16.2506V16.2387V16.2269V16.215V16.203V16.1911V16.1791V16.1672V16.1552V16.1431V16.1311V16.119V16.1069V16.0948V16.0827V16.0706V16.0584V16.0462V16.034V16.0218V16.0095V15.9973V15.985V15.9727V15.9604V15.948V15.9357V15.9233V15.9109V15.8985V15.8861V15.8737V15.8612V15.8488V15.8363V15.8238V15.8113V15.7987V15.7862V15.7736V15.7611V15.7485V15.7359V15.7233V15.7106V15.698V15.6853V15.6727V15.66V15.6473V15.6346V15.6219V15.6092V15.5964V15.5837V15.5709V15.5581V15.5454V15.5326V15.5198V15.507V15.4941V15.4813V15.4685V15.4556V15.4428V15.4299V15.417V15.4041V15.3912V15.3783V15.3654V15.3525V15.3396V15.3267V15.3138V15.3008V15.2879V15.2749V15.262V15.249V15.236V15.2231V15.2101V15.1971V15.1841V15.1711V15.1582V15.1452V15.1322V15.1192V15.1062V15.0931V15.0801V15.0671V15.0541V15.0411V15.0281V15.0151V15.002V14.989V14.976V14.963V14.95V14.9369V14.9239V14.9109V14.8979V14.8849V14.8718V14.8588V14.8458V14.8328V14.8198V14.8068V14.7938V14.7808V14.7678V14.7548V14.7418V14.7288V14.7158V14.7028V14.6899V14.6769V14.6639V14.651V14.638V14.625V14.6121V14.5992V14.5862V14.5733V14.5604V14.5475V14.5346V14.5217V14.5088V14.4959V14.483V14.4701V14.4573V14.4444V14.4316V14.4188V14.4059V14.3931V14.3803V14.3675V14.3547V14.342V14.3292V14.3164V14.3037V14.291V14.2782V14.2655V14.2528V14.2402V14.2275V14.2148V14.2022V14.1896V14.1769V14.1643V14.1517V14.1392V14.1266V14.1141V14.1015V14.089V14.0765V14.064V14.0515V14.0391V14.0266V14.0142V14.0018V13.9894V13.977V13.9647V13.9523V13.94V13.9277V13.9154V13.9032V13.8909V13.8787V13.8665V13.8543V13.8421V13.8299V13.8178V13.8057V13.7936V13.7815V13.7695V13.7575V13.7454V13.7335V13.7215V13.7095V13.6976V13.6857V13.6738V13.662V13.6502V13.6383V13.6266V13.6148V13.6031V13.5913V13.5797V13.568V13.5564V13.5447V13.5331V13.5216V13.51V13.4985V13.487V13.4756V13.4642V13.4527V13.4414V13.43V13.4187V13.4074V13.3961V13.3849V13.3737V13.3625V13.3513V13.3402V13.3291V13.318V13.307V13.296V13.285V13.2741V13.2632V13.2523V13.2414V13.2306V13.2198V13.209V13.1983V13.1876V13.177V13.1663V13.1557V13.1452V13.1346V13.1241V13.1137V13.1032V13.0928V13.0825V13.0722V13.0619V13.0516V13.0414V13.0312V13.0211V13.0109V13.0009V12.9908V12.9808V12.9709V12.9609V12.951V12.9412V12.9314V12.9216V12.9119V12.9022V12.8925V12.8829V12.8733V12.8637V12.8542V12.8448V12.8353V12.826V12.8166V12.8073V12.798V12.7888V12.7796V12.7705V12.7614V12.7523V12.7433V12.7344V12.7254V12.7166V12.7077V12.6989V12.6902V12.6815V12.6728V12.6642V12.6556V12.6471V12.6386V12.6301V12.6217V12.6134V12.6051V12.5968V12.5886V12.5804V12.5723V12.5643V12.5562V12.5483V12.5403V12.5324V12.5246V12.5168V12.5091V12.5014V12.4938V12.4862V12.4786V12.4712V12.4637V12.4563V12.449V12.4417V12.4345V12.4273V12.4201V12.4131V12.406V12.3991V12.3921V12.3853V12.3784V12.3717V12.3649V12.3583V12.3517V12.3451V12.3386V12.3322V12.3258V12.3194V12.3132V12.3069V12.3008V12.2946V12.2886V12.2826V12.2766V12.2707V12.2649V12.2591V12.2534V12.2477V12.2421V12.2366V12.2311V12.2257V12.2203V12.215V12.2097V12.2045V12.1994V12.1943V12.1893V12.1844V12.1795V12.1746V12.1698V12.1651V12.1605V12.1559V12.1514V12.1469V12.1425V12.1381V12.1339V12.1296V12.1255V12.1214V12.1174V12.1134V12.1095V12.1057V12.1019V12.0982V12.0945V12.091V12.0875V12.084V12.0806V12.0773V12.0741V12.0709V12.0678V12.0647V12.0617V12.0588V12.056V12.0532V12.0505V12.0478V12.0453V12.0428V12.0403V12.0379V12.0357V12.0334V12.0313V12.0292V12.0272V12.0252V12.0233V12.0215V12.0198V12.0181V12.0165V12.015V12.0136V12.0122V12.0109V12.0096V12.0085V12.0074V12.0064V12.0054V12.0046V12.0038V12.0031V12.0024V12.0019V12.0014V12.001V12.0006V12.0003V12.0002V12C21 12 21 12 21 12V11.9903V11.9805V11.9707V11.9609V11.951V11.9411V11.9311V11.9211V11.9111V11.901V11.8909V11.8808V11.8706V11.8604V11.8502V11.8399V11.8296V11.8192V11.8088V11.7984V11.788V11.7775V11.767V11.7564V11.7458V11.7352V11.7246V11.7139V11.7031V11.6924V11.6816V11.6708V11.66V11.6491V11.6382V11.6272V11.6163V11.6053V11.5943V11.5832V11.5721V11.561V11.5498V11.5387V11.5275V11.5162V11.505V11.4937V11.4824V11.471V11.4597V11.4483V11.4368V11.4254V11.4139V11.4024V11.3909V11.3793V11.3677V11.3561V11.3445V11.3328V11.3212V11.3095V11.2977V11.286V11.2742V11.2624V11.2506V11.2387V11.2269V11.215V11.203V11.1911V11.1791V11.1672V11.1552V11.1431V11.1311V11.119V11.1069V11.0948V11.0827V11.0706V11.0584V11.0462V11.034V11.0218V11.0095V10.9973V10.985V10.9727V10.9604V10.948V10.9357V10.9233V10.9109V10.8985V10.8861V10.8737V10.8612V10.8488V10.8363V10.8238V10.8113V10.7987V10.7862V10.7736V10.7611V10.7485V10.7359V10.7233V10.7106V10.698V10.6853V10.6727V10.66V10.6473V10.6346V10.6219V10.6092V10.5964V10.5837V10.5709V10.5581V10.5454V10.5326V10.5198V10.507V10.4941V10.4813V10.4685V10.4556V10.4428V10.4299V10.417V10.4041V10.3912V10.3783V10.3654V10.3525V10.3396V10.3267V10.3138V10.3008V10.2879V10.2749V10.262V10.249V10.236V10.2231V10.2101V10.1971V10.1841V10.1711V10.1582V10.1452V10.1322V10.1192V10.1062V10.0931V10.0801V10.0671V10.0541V10.0411V10.0281V10.0151V10.002V9.98903V9.976V9.96298V9.94996V9.93694V9.92392V9.9109V9.89788V9.88486V9.87185V9.85883V9.84582V9.8328V9.81979V9.80679V9.79378V9.78078V9.76778V9.75478V9.74179V9.7288V9.71582V9.70284V9.68986V9.67689V9.66392V9.65096V9.638V9.62505V9.6121V9.59916V9.58623V9.5733V9.56038V9.54747V9.53456V9.52166V9.50877V9.49588V9.48301V9.47014V9.45728V9.44443V9.43158V9.41875V9.40593V9.39311V9.38031V9.36751V9.35473V9.34195V9.32919V9.31644V9.30369V9.29096V9.27824V9.26554V9.25284V9.24016V9.22749V9.21483V9.20219V9.18955V9.17694V9.16433V9.15174V9.13916V9.1266V9.11405V9.10152V9.089V9.0765V9.06401V9.05153V9.03908V9.02664V9.01421V9.0018V8.98941V8.97704V8.96468V8.95234V8.94002V8.92771V8.91543V8.90316V8.89091V8.87868V8.86647V8.85428V8.8421V8.82995V8.81781V8.8057V8.79361V8.78153V8.76948V8.75745V8.74544V8.73345V8.72149V8.70954V8.69762V8.68572V8.67384V8.66198V8.65015V8.63834V8.62656V8.6148V8.60306V8.59134V8.57966V8.56799V8.55635V8.54474V8.53315V8.52158V8.51004V8.49853V8.48704V8.47558V8.46415V8.45274V8.44136V8.43001V8.41869V8.40739V8.39612V8.38488V8.37367V8.36248V8.35133V8.3402V8.32911V8.31804V8.307V8.29599V8.28502V8.27407V8.26315V8.25227V8.24142V8.23059V8.2198V8.20904V8.19831V8.18762V8.17696V8.16633V8.15573V8.14517V8.13463V8.12414V8.11367V8.10324V8.09285V8.08249V8.07216V8.06187V8.05162V8.0414V8.03121V8.02106V8.01095V8.00087V7.99083V7.98083V7.97086V7.96093V7.95104V7.94119V7.93137V7.92159V7.91185V7.90215V7.89249V7.88286V7.87328V7.86373V7.85423V7.84476V7.83534V7.82595V7.81661V7.8073V7.79804V7.78882V7.77964V7.7705V7.7614V7.75235V7.74333V7.73436V7.72544V7.71655V7.70771V7.69892V7.69016V7.68145V7.67279V7.66417V7.65559V7.64706V7.63857V7.63013V7.62173V7.61338V7.60508V7.59682V7.58861V7.58044V7.57233V7.56426V7.55623V7.54825V7.54033V7.53245V7.52461V7.51683V7.50909V7.50141V7.49377V7.48618V7.47864V7.47115V7.46372V7.45633V7.44899V7.4417V7.43446V7.42728V7.42014V7.41306V7.40603V7.39905V7.39213V7.38525V7.37843V7.37166V7.36495V7.35828V7.35168V7.34512V7.33862V7.33217V7.32578V7.31944V7.31316V7.30693V7.30076V7.29465V7.28859V7.28258V7.27663V7.27074V7.26491V7.25913V7.25341V7.24775V7.24214V7.23659V7.2311V7.22567V7.2203V7.21499V7.20973V7.20454V7.1994V7.19432V7.18931V7.18435V7.17945V7.17462V7.16984V7.16513V7.16048V7.15588V7.15135V7.14689V7.14248V7.13814V7.13386V7.12964V7.12548V7.12139V7.11736V7.1134V7.1095V7.10566V7.10189V7.09818V7.09454V7.09096V7.08745V7.08401V7.08062V7.07731V7.07406V7.07088V7.06776V7.06471V7.06173V7.05882V7.05597V7.05319V7.05048V7.04784V7.04526V7.04276V7.04032V7.03795V7.03565V7.03342V7.03126V7.02917V7.02715V7.0252V7.02333V7.02152V7.01978V7.01812V7.01653V7.015V7.01355V7.01218V7.01087V7.00964V7.00848V7.0074V7.00638V7.00544V7.00458V7.00379V7.00307V7.00243V7.00186V7.00137V7.00095V7.00061V7.00034V7.00015V7.00004V7C21 6.19711 20.5625 5.55194 20.0347 5.08401C19.5058 4.61504 18.7974 4.2384 18.008 3.94235C16.4217 3.34749 14.2973 3 12 3C9.70269 3 7.57833 3.34749 5.99202 3.94235C5.20256 4.2384 4.49422 4.61504 3.96527 5.08401C3.43749 5.55194 3 6.19711 3 7ZM19 12C19 12 19 12 19 12V11.9903V11.9805V11.9707V11.9609V11.951V11.9411V11.9311V11.9211V11.9111V11.901V11.8909V11.8808V11.8706V11.8604V11.8502V11.8399V11.8296V11.8192V11.8088V11.7984V11.788V11.7775V11.767V11.7564V11.7458V11.7352V11.7246V11.7139V11.7031V11.6924V11.6816V11.6708V11.66V11.6491V11.6382V11.6272V11.6163V11.6053V11.5943V11.5832V11.5721V11.561V11.5498V11.5387V11.5275V11.5162V11.505V11.4937V11.4824V11.471V11.4597V11.4483V11.4368V11.4254V11.4139V11.4024V11.3909V11.3793V11.3677V11.3561V11.3445V11.3328V11.3212V11.3095V11.2977V11.286V11.2742V11.2624V11.2506V11.2387V11.2269V11.215V11.203V11.1911V11.1791V11.1672V11.1552V11.1431V11.1311V11.119V11.1069V11.0948V11.0827V11.0706V11.0584V11.0462V11.034V11.0218V11.0095V10.9973V10.985V10.9727V10.9604V10.948V10.9357V10.9233V10.9109V10.8985V10.8861V10.8737V10.8612V10.8488V10.8363V10.8238V10.8113V10.7987V10.7862V10.7736V10.7611V10.7485V10.7359V10.7233V10.7106V10.698V10.6853V10.6727V10.66V10.6473V10.6346V10.6219V10.6092V10.5964V10.5837V10.5709V10.5581V10.5454V10.5326V10.5198V10.507V10.4941V10.4813V10.4685V10.4556V10.4428V10.4299V10.417V10.4041V10.3912V10.3783V10.3654V10.3525V10.3396V10.3267V10.3138V10.3008V10.2879V10.2749V10.262V10.249V10.236V10.2231V10.2101V10.1971V10.1841V10.1711V10.1582V10.1452V10.1322V10.1192V10.1062V10.0931V10.0801V10.0671V10.0541V10.0411V10.0281V10.0151V10.002V9.98903V9.976V9.96298V9.94996V9.93694V9.92392V9.9109V9.89788V9.88486V9.87185V9.85883V9.84582V9.8328V9.81979V9.80679V9.79378V9.78078V9.76778V9.75478V9.74179V9.7288V9.71582V9.70284V9.68986V9.67689V9.66392V9.65096V9.638V9.62505V9.61619C18.6909 9.77981 18.3574 9.92662 18.008 10.0576C16.4217 10.6525 14.2973 11 12 11C9.70269 11 7.57833 10.6525 5.99202 10.0576C5.64262 9.92662 5.3091 9.77981 5 9.61619V9.62641V9.63977V9.65312V9.66647V9.67982V9.69317V9.70652V9.71986V9.7332V9.74654V9.75988V9.77322V9.78655V9.79988V9.8132V9.82652V9.83983V9.85314V9.86645V9.87975V9.89304V9.90633V9.91961V9.93288V9.94615V9.95941V9.97266V9.9859V9.99914V10.0124V10.0256V10.0388V10.052V10.0652V10.0784V10.0915V10.1047V10.1178V10.131V10.1441V10.1572V10.1703V10.1834V10.1965V10.2095V10.2226V10.2356V10.2486V10.2616V10.2746V10.2876V10.3005V10.3135V10.3264V10.3393V10.3522V10.3651V10.3779V10.3908V10.4036V10.4164V10.4292V10.442V10.4547V10.4675V10.4802V10.4929V10.5055V10.5182V10.5308V10.5434V10.556V10.5686V10.5811V10.5936V10.6061V10.6186V10.6311V10.6435V10.6559V10.6683V10.6806V10.6929V10.7053V10.7175V10.7298V10.742V10.7542V10.7664V10.7785V10.7906V10.8027V10.8148V10.8268V10.8388V10.8508V10.8628V10.8747V10.8866V10.8984V10.9103V10.9221V10.9338V10.9456V10.9573V10.9689V10.9806V10.9922V11.0038V11.0153V11.0268V11.0383V11.0497V11.0611V11.0725V11.0838V11.0951V11.1064V11.1176V11.1288V11.14V11.1511V11.1622V11.1732V11.1842V11.1952V11.2061V11.217V11.2279V11.2387V11.2494V11.2602V11.2709V11.2815V11.2921V11.3027V11.3132V11.3237V11.3342V11.3446V11.3549V11.3652V11.3755V11.3857V11.3959V11.4061V11.4162V11.4262V11.4362V11.4462V11.4561V11.466V11.4758V11.4856V11.4953V11.505V11.5146V11.5242V11.5337V11.5432V11.5527V11.562V11.5714V11.5807V11.5899V11.5991V11.6083V11.6173V11.6264V11.6354V11.6443V11.6532V11.662V11.6708V11.6795V11.6882V11.6968V11.7054V11.7139V11.7223V11.7307V11.7391V11.7474V11.7556V11.7638V11.7719V11.7799V11.788V11.7959V11.8038V11.8116V11.8194V11.8271V11.8348V11.8424V11.8499V11.8574V11.8648V11.8721V11.8794V11.8867V11.8938V11.901V11.908V11.915V11.9219V11.9288V11.9356V11.9423V11.949V11.9556V11.9621V11.9686V11.975V11.9814V11.9876V11.9939V12C5 12 5 12 5 12C5.00001 12.0257 5.01039 12.1697 5.29209 12.4195C5.57279 12.6683 6.03602 12.9381 6.69427 13.185C8.0034 13.6759 9.87903 14 12 14C14.121 14 15.9966 13.6759 17.3057 13.185C17.964 12.9381 18.4272 12.6683 18.7079 12.4195C18.9896 12.1697 19 12.0257 19 12ZM5 14.6162C5.3091 14.7798 5.64262 14.9266 5.99202 15.0576C7.57833 15.6525 9.70269 16 12 16C14.2973 16 16.4217 15.6525 18.008 15.0576C18.3574 14.9266 18.6909 14.7798 19 14.6162V14.625V14.638V14.651V14.6639V14.6769V14.6899V14.7028V14.7158V14.7288V14.7418V14.7548V14.7678V14.7808V14.7938V14.8068V14.8198V14.8328V14.8458V14.8588V14.8718V14.8849V14.8979V14.9109V14.9239V14.9369V14.95V14.963V14.976V14.989V15.002V15.0151V15.0281V15.0411V15.0541V15.0671V15.0801V15.0931V15.1062V15.1192V15.1322V15.1452V15.1582V15.1711V15.1841V15.1971V15.2101V15.2231V15.236V15.249V15.262V15.2749V15.2879V15.3008V15.3138V15.3267V15.3396V15.3525V15.3654V15.3783V15.3912V15.4041V15.417V15.4299V15.4428V15.4556V15.4685V15.4813V15.4941V15.507V15.5198V15.5326V15.5454V15.5581V15.5709V15.5837V15.5964V15.6092V15.6219V15.6346V15.6473V15.66V15.6727V15.6853V15.698V15.7106V15.7233V15.7359V15.7485V15.7611V15.7736V15.7862V15.7987V15.8113V15.8238V15.8363V15.8488V15.8612V15.8737V15.8861V15.8985V15.9109V15.9233V15.9357V15.948V15.9604V15.9727V15.985V15.9973V16.0095V16.0218V16.034V16.0462V16.0584V16.0706V16.0827V16.0948V16.1069V16.119V16.1311V16.1431V16.1552V16.1672V16.1791V16.1911V16.203V16.215V16.2269V16.2387V16.2506V16.2624V16.2742V16.286V16.2977V16.3095V16.3212V16.3328V16.3445V16.3561V16.3677V16.3793V16.3909V16.4024V16.4139V16.4254V16.4368V16.4483V16.4597V16.471V16.4824V16.4937V16.505V16.5162V16.5275V16.5387V16.5498V16.561V16.5721V16.5832V16.5943V16.6053V16.6163V16.6272V16.6382V16.6491V16.66V16.6708V16.6816V16.6924V16.7031V16.7139V16.7246V16.7352V16.7458V16.7564V16.767V16.7775V16.788V16.7984V16.8088V16.8192V16.8296V16.8399V16.8502V16.8604V16.8706V16.8808V16.8909V16.901V16.9111V16.9211V16.9311V16.9411V16.951V16.9609V16.9707V16.9805V16.9903V17C19 17.0255 18.9898 17.1696 18.7079 17.4195C18.4272 17.6683 17.964 17.9381 17.3057 18.185C15.9966 18.6759 14.121 19 12 19C9.87903 19 8.0034 18.6759 6.69427 18.185C6.03602 17.9381 5.57279 17.6683 5.29209 17.4195C5.01022 17.1696 5 17.0255 5 17V16.9939V16.9876V16.9814V16.975V16.9686V16.9621V16.9556V16.949V16.9423V16.9356V16.9288V16.9219V16.915V16.908V16.901V16.8938V16.8867V16.8794V16.8721V16.8648V16.8574V16.8499V16.8424V16.8348V16.8271V16.8194V16.8116V16.8038V16.7959V16.788V16.7799V16.7719V16.7638V16.7556V16.7474V16.7391V16.7307V16.7223V16.7139V16.7054V16.6968V16.6882V16.6795V16.6708V16.662V16.6532V16.6443V16.6354V16.6264V16.6173V16.6083V16.5991V16.5899V16.5807V16.5714V16.562V16.5527V16.5432V16.5337V16.5242V16.5146V16.505V16.4953V16.4856V16.4758V16.466V16.4561V16.4462V16.4362V16.4262V16.4162V16.4061V16.3959V16.3857V16.3755V16.3652V16.3549V16.3446V16.3342V16.3237V16.3132V16.3027V16.2921V16.2815V16.2709V16.2602V16.2494V16.2387V16.2279V16.217V16.2061V16.1952V16.1842V16.1732V16.1622V16.1511V16.14V16.1288V16.1176V16.1064V16.0951V16.0838V16.0725V16.0611V16.0497V16.0383V16.0268V16.0153V16.0038V15.9922V15.9806V15.9689V15.9573V15.9456V15.9338V15.9221V15.9103V15.8984V15.8866V15.8747V15.8628V15.8508V15.8388V15.8268V15.8148V15.8027V15.7906V15.7785V15.7664V15.7542V15.742V15.7298V15.7175V15.7053V15.6929V15.6806V15.6683V15.6559V15.6435V15.6311V15.6186V15.6061V15.5936V15.5811V15.5686V15.556V15.5434V15.5308V15.5182V15.5055V15.4929V15.4802V15.4675V15.4547V15.442V15.4292V15.4164V15.4036V15.3908V15.3779V15.3651V15.3522V15.3393V15.3264V15.3135V15.3005V15.2876V15.2746V15.2616V15.2486V15.2356V15.2226V15.2095V15.1965V15.1834V15.1703V15.1572V15.1441V15.131V15.1178V15.1047V15.0915V15.0784V15.0652V15.052V15.0388V15.0256V15.0124V14.9991V14.9859V14.9727V14.9594V14.9461V14.9329V14.9196V14.9063V14.893V14.8797V14.8664V14.8531V14.8398V14.8265V14.8132V14.7999V14.7865V14.7732V14.7599V14.7465V14.7332V14.7199V14.7065V14.6932V14.6798V14.6665V14.6531V14.6398V14.6264V14.6162Z" fill="white"/>
</svg>
