<svg width="24" height="24" viewBox="0 0 24 24" fill="none" xmlns="http://www.w3.org/2000/svg">
<path fill-rule="evenodd" clip-rule="evenodd" d="M22 6C22 5.44772 21.5523 5 21 5H15C14.4477 5 14 5.44772 14 6C14 6.55228 14.4477 7 15 7H18.6801L12.3333 13.7201L9.72701 10.9604C9.5381 10.7604 9.27513 10.6471 9 10.6471C8.72487 10.6471 8.4619 10.7604 8.27299 10.9604L2.27299 17.3134C1.89377 17.7149 1.91186 18.3478 2.31338 18.727C2.71489 19.1062 3.3478 19.0881 3.72701 18.6866L9 13.1035L11.6063 15.8631C11.7952 16.0631 12.0582 16.1765 12.3333 16.1765C12.6085 16.1765 12.8714 16.0631 13.0603 15.8631L20 8.51523V12.3529C20 12.9052 20.4477 13.3529 21 13.3529C21.5523 13.3529 22 12.9052 22 12.3529V6Z" fill="white"/>
</svg>
